<svg width="18" height="19" viewBox="0 0 18 19" fill="none" xmlns="http://www.w3.org/2000/svg">
<path d="M16 0.319092C16.5304 0.319092 17.0391 0.534469 17.4142 0.917842C17.7893 1.30122 18 1.82118 18 2.36335V16.6732C18 17.2153 17.7893 17.7353 17.4142 18.1187C17.0391 18.5021 16.5304 18.7174 16 18.7174H2C1.46957 18.7174 0.960859 18.5021 0.585786 18.1187C0.210714 17.7353 0 17.2153 0 16.6732V2.36335C0 1.82118 0.210714 1.30122 0.585786 0.917842C0.960859 0.534469 1.46957 0.319092 2 0.319092H16ZM15.5 16.1621V10.7448C15.5 9.86108 15.1565 9.01354 14.5452 8.38864C13.9338 7.76374 13.1046 7.41268 12.24 7.41268C11.39 7.41268 10.4 7.94418 9.92 8.74145V7.60688H7.13V16.1621H9.92V11.123C9.92 10.336 10.54 9.69203 11.31 9.69203C11.6813 9.69203 12.0374 9.84279 12.2999 10.1112C12.5625 10.3795 12.71 10.7435 12.71 11.123V16.1621H15.5ZM3.88 6.00214C4.32556 6.00214 4.75288 5.82122 5.06794 5.49919C5.383 5.17715 5.56 4.74038 5.56 4.28496C5.56 3.33438 4.81 2.55756 3.88 2.55756C3.43178 2.55756 3.00193 2.73955 2.68499 3.0635C2.36805 3.38745 2.19 3.82682 2.19 4.28496C2.19 5.23554 2.95 6.00214 3.88 6.00214ZM5.27 16.1621V7.60688H2.5V16.1621H5.27Z" fill="#3880D6"/>
</svg>
